<svg xmlns="http://www.w3.org/2000/svg" viewBox="0 0 94.3 71.24"><defs><style>.cls-1{fill:#fff;}.cls-2{fill:#fc0;}</style></defs><title>39_whiteAsset 2</title><g id="Layer_2" data-name="Layer 2"><g id="Layer_1-2" data-name="Layer 1"><path class="cls-1" d="M21.24,0A21.24,21.24,0,0,0,0,21.24s0,.09,0,.13H13.72s0-.09,0-.13a7.53,7.53,0,1,1,7.53,7.53V42.48A7.53,7.53,0,1,1,13.71,50H0A21.24,21.24,0,1,0,36.84,35.62,21.22,21.22,0,0,0,21.24,0Z"/><path class="cls-1" d="M94.3,21.24A21.32,21.32,0,1,0,80.58,41.08V50a7.53,7.53,0,1,1-15,0H51.82A21.24,21.24,0,1,0,94.3,50h0V21.24ZM73.05,13.71a7.53,7.53,0,1,1-7.52,7.53A7.53,7.53,0,0,1,73.05,13.71Z"/><rect class="cls-2" y="28.77" width="13.71" height="13.71"/></g></g></svg>